<?xml version="1.0" encoding="iso-8859-1"?>
<!-- Generator: Adobe Illustrator 19.0.0, SVG Export Plug-In . SVG Version: 6.00 Build 0)  -->
<svg version="1.1" id="Capa_1" xmlns="http://www.w3.org/2000/svg" xmlns:xlink="http://www.w3.org/1999/xlink" x="0px" y="0px"
	 viewBox="0 0 511.999 511.999" style="enable-background:new 0 0 511.999 511.999;" xml:space="preserve">
<path style="fill:#FEDB41;" d="M488.467,449.649c-10.8,18.301-30.3,29.401-51.599,29.401H75.132c-21.299,0-40.8-11.1-51.599-29.401
	c-10.801-18.6-11.4-40.8-0.901-59.7L203.5,64.149c10.8-19.5,30.3-31.199,52.5-31.199s41.7,11.699,52.5,31.199l180.868,325.8
	C499.868,408.849,499.269,431.049,488.467,449.649z"/>
<path style="fill:#FCBF29;" d="M488.467,449.649c-10.8,18.301-30.3,29.401-51.599,29.401H256V32.95c22.2,0,41.7,11.699,52.5,31.199
	l180.868,325.8C499.868,408.849,499.269,431.049,488.467,449.649z"/>
<path style="fill:#FD4E26;" d="M502.568,382.749L321.7,56.649C307.599,30.85,281.799,17.95,256,17.95s-51.599,12.9-65.7,38.699
	L9.432,382.749c-27.599,50.099,8.701,111.301,65.7,111.301h361.737C493.867,494.05,530.168,432.849,502.568,382.749z
	 M436.868,464.05H75.132c-34.2,0-56.1-36.601-39.3-66.901L216.7,71.349c8.699-15.599,24-23.399,39.3-23.399s30.901,7.8,39.3,23.399
	l180.868,325.8C492.668,427.149,471.069,464.05,436.868,464.05z"/>
<path style="fill:#57555C;" d="M376.299,434.05H75.7c-11.4,0-18.6-12.301-13.2-22.2l130.8-236.4
	c4.801-8.701,18.001-10.801,24.901-1.501C233.5,194.05,241,216.55,241,239.05v23.699l15,15.3l10.499,10.499
	c1.201,0.901,2.1,2.401,3.001,3.9l25.8,51.601h12.299c27.301,0,52.5,14.7,65.7,38.699L389.5,411.85
	C394.9,421.749,387.7,434.05,376.299,434.05z"/>
<g>
	<circle style="fill:#3C3A41;" cx="316" cy="299.05" r="15"/>
	<circle style="fill:#3C3A41;" cx="376" cy="329.05" r="15"/>
	<circle style="fill:#3C3A41;" cx="301" cy="224.05" r="30"/>
</g>
<path style="fill:#FD3018;" d="M436.868,494.05H256v-30h180.868c34.2,0,55.8-36.901,39.3-66.901l-180.868-325.8
	c-8.399-15.599-24-23.399-39.3-23.399v-30c25.8,0,51.599,12.9,65.7,38.699l180.868,326.1
	C530.168,432.849,493.867,494.05,436.868,494.05z"/>
<path style="fill:#3C3A41;" d="M376.299,434.05H256v-156l10.499,10.499c1.201,0.901,2.1,2.401,3.001,3.9l25.8,51.601h12.299
	c27.301,0,52.5,14.7,65.7,38.699L389.5,411.85C394.9,421.749,387.7,434.05,376.299,434.05z"/>
<g>
</g>
<g>
</g>
<g>
</g>
<g>
</g>
<g>
</g>
<g>
</g>
<g>
</g>
<g>
</g>
<g>
</g>
<g>
</g>
<g>
</g>
<g>
</g>
<g>
</g>
<g>
</g>
<g>
</g>
</svg>
